<?xml version="1.0" encoding="UTF-8"?><svg id="a" xmlns="http://www.w3.org/2000/svg" viewBox="0 0 109.15 140"><path d="M52.54,123.92c-.38,0-.76,0-1.14-.01-27.17-.6-43.4-26.74-43.4-51.67,0-33.52,18.85-56.04,46.9-56.04s46.24,21.59,46.24,53.72c0,16.5-5.56,31.03-15.67,40.91-8.65,8.46-20.31,13.08-32.94,13.08ZM54.9,38.99c-22.38,0-24.12,25.45-24.12,33.25,0,13.67,8.07,28.6,21.12,28.89,7.05.17,13.1-2.12,17.65-6.57,5.69-5.56,8.82-14.31,8.82-24.63,0-7.26-1.69-30.94-23.46-30.94Z" style="fill:#231815;"/></svg>