<?xml version="1.0" encoding="UTF-8"?><svg id="a" xmlns="http://www.w3.org/2000/svg" viewBox="0 0 100.72 152"><path d="M81.51,123.92H19.98c-3.1,0-6.06-1.26-8.21-3.49-2.15-2.23-3.29-5.24-3.17-8.34.08-2.08,1.47-20.79,25.01-36.96,6.1-4.19,11.84-7.54,16.9-10.5,13.77-8.05,17.51-10.94,17.55-15.92.01-1.44-.28-4.17-2.38-6.3-2.45-2.48-6.9-3.81-12.88-3.84h-.15c-15.06,0-24.17,11.16-24.26,11.27-3.87,4.97-11.02,5.86-15.99,1.99-4.96-3.87-5.85-11.02-1.99-15.99.64-.82,15.92-20.05,42.23-20.05h.26c15.37.07,24.25,5.82,28.99,10.62,5.84,5.92,9.02,13.91,8.94,22.5-.16,18.63-14.09,26.77-28.84,35.39-4.95,2.9-10.08,5.89-15.5,9.61-3.6,2.47-6.35,4.93-8.44,7.23h43.45c6.29,0,11.39,5.1,11.39,11.39s-5.1,11.39-11.39,11.39Z" style="fill:#231815;"/></svg>