<?xml version="1.0" encoding="UTF-8"?><svg id="a" xmlns="http://www.w3.org/2000/svg" viewBox="0 0 102.33 140"><path d="M49.02,123.92c-23.43,0-35.45-10.88-37.72-13.19-4.43-4.47-4.39-11.68.09-16.11s11.69-4.39,16.11.09c.26.25,7.79,7.28,24.63,6.33,6.72-.37,19.42-3.81,19.42-14.15,0-1.91-.56-2.86-1.39-3.68-3.28-3.22-11.31-4.61-15.84-4.77-.93,0-1.56,0-1.86-.02-6.15-.26-10.98-5.37-10.9-11.53.08-6.16,5.04-11.14,11.2-11.24.29,0,.87,0,1.68.01,3.75-.08,9.57-1.14,12.04-3.5.67-.63,1.28-1.51,1.32-3.62.02-1.18-.48-3.72-2.49-5.75-2.88-2.93-7.76-3.54-11.34-3.54-15.46,0-23.29,5.56-23.61,5.79-4.95,3.88-12.04,2.96-15.92-1.99-3.88-4.95-2.94-12.17,2.01-16.06,1.37-1.08,14.1-10.53,37.51-10.53,14.38,0,22.93,5.62,27.57,10.34,5.78,5.87,9.15,14.13,9.03,22.09-.1,6.43-2.08,12.19-5.76,16.88.44.39.88.79,1.3,1.2,5.37,5.28,8.2,12.17,8.2,19.92,0,22.72-20.59,35.76-40.94,36.89-1.5.08-2.96.12-4.38.12Z" style="fill:#231815;"/></svg>