<?xml version="1.0" encoding="UTF-8"?><svg id="a" xmlns="http://www.w3.org/2000/svg" viewBox="0 0 103.21 152"><path d="M49.4,124c-24.89,0-37.2-12.66-38.59-14.18-4.01-4.4-3.7-11.21.7-15.22,4.4-4.01,11.21-3.7,15.22.7.19.18,8.19,8.04,25.7,7.07.87-.05,21.22-1.34,21.22-14.54,0-7.55-8.09-9.26-8.17-9.27-2.44-.29-7.8-.27-10.9-.19-.26,0-.4.01-.41.01-5.96.15-10.9-4.51-11.07-10.46s4.5-10.9,10.45-11.08c.08,0,.22,0,.4-.01,1.65-.04,8.22-.22,12.09-.25,1.28-.14,5.31-3.28,5.39-8.19.01-.72-.45-3.07-2.71-5.36-2.94-2.98-7.71-4.56-13.8-4.56-13.96,0-17.33,4.02-19.82,5.38-.85.46-2.31,1.52-2.8,1.82-5.14,3.17-11.26,2.46-14.73-2.37-3.41-4.75-2.49-11.93,2.23-15.53.19-.17.4-.34.63-.49,3.29-2.43,12.36-10.36,34.5-10.36,15.15,0,24.22,5.98,29.15,10.99,5.69,5.78,9.01,13.56,8.9,20.81-.1,6.67-2.46,13-6.23,18.07,4.92,5.08,8.45,12.11,8.45,21.03,0,23.18-21.55,34.94-41.57,36.05-1.45.08-2.86.12-4.24.12Z" style="fill:#14327a;"/></svg>