<?xml version="1.0" encoding="UTF-8"?><svg id="a" xmlns="http://www.w3.org/2000/svg" viewBox="0 0 107.45 152"><path d="M73.58,123.92h-.03c-6.29-.02-11.38-5.14-11.36-11.43l.03-9.42-42.82-.15c-4.43-.01-8.44-2.59-10.3-6.61-1.86-4.02-1.22-8.75,1.64-12.13L65.14,19.76c3.09-3.66,8.14-5,12.63-3.34,4.49,1.65,7.48,5.94,7.46,10.73l-.17,53.21h3.03c6.29.03,11.37,5.15,11.35,11.44-.02,6.28-5.12,11.35-11.39,11.35h-3.06s-.03,9.41-.03,9.41c-.02,6.28-5.12,11.36-11.39,11.36ZM43.9,80.22l18.39.06.07-21.91-18.45,21.85Z" style="fill:#231815;"/></svg>