<?xml version="1.0" encoding="UTF-8"?><svg id="a" xmlns="http://www.w3.org/2000/svg" viewBox="0 0 106.12 140"><path d="M47.48,123.92c-17.41,0-31.26-5.16-32.15-5.5-5.88-2.24-8.83-8.82-6.59-14.7,2.24-5.88,8.82-8.83,14.7-6.59.21.08,25.12,9.19,44.96-.27,8.01-3.82,7.08-11.06,6.6-13.19-1.2-5.33-6.21-11.57-16.38-11.6-17.42.04-29.98,6.35-30.1,6.41-3.56,1.84-7.83,1.7-11.24-.39-3.41-2.09-5.49-5.81-5.45-9.81l.41-40.59c.06-6.23,5.12-11.25,11.35-11.28l56.13-.2h.04c6.27,0,11.37,5.07,11.39,11.35.02,6.29-5.06,11.41-11.35,11.43l-44.89.16-.13,13.08c6.57-1.66,14.76-2.99,23.94-2.95,22.07.08,35.26,14.82,38.53,29.4,3.6,16.02-4.04,31.59-19.02,38.74-10.27,4.9-21.06,6.5-30.74,6.5Z" style="fill:#231815;"/></svg>