<?xml version="1.0" encoding="UTF-8"?><svg id="a" xmlns="http://www.w3.org/2000/svg" viewBox="0 0 107.3 152"><path d="M56.37,123.92c-15.61,0-27.15-3.98-35.27-12.16-4.91-4.94-8.41-11.27-10.55-19.11-.11-.36-.21-.72-.29-1.09-1.57-6.21-2.32-13.34-2.26-21.45.26-36.07,24.42-52.93,48.25-53.63,21.75-.63,33.23,9.53,35.34,11.57,4.52,4.38,4.63,11.59.25,16.11-4.37,4.5-11.56,4.62-16.07.28-.37-.34-6.31-5.55-18.84-5.19-5.24.15-20.7,2.23-25.01,20.74,7.3-3.74,15.66-5.6,24.56-5.34,24.81.7,42.82,14.94,42.82,33.87,0,21.5-16.85,35.4-42.92,35.4ZM33.21,88.84c1.03,2.89,2.38,5.18,4.06,6.87,3.62,3.65,9.87,5.43,19.1,5.43,13.36,0,20.14-4.24,20.14-12.62,0-5.06-7.9-10.74-20.67-11.1-13.95-.4-20.77,7.93-22.63,11.42Z" style="fill:#231815;"/></svg>