<?xml version="1.0" encoding="UTF-8"?><svg id="a" xmlns="http://www.w3.org/2000/svg" viewBox="0 0 104.78 152"><path d="M85.46,65.47c5.03-5.06,7.67-11.42,7.66-18.41-.04-18.2-17.18-31.02-41.67-31.17-21.37-.05-38.81,12.43-39.74,28.59-.43,7.38,2.26,14.55,7.57,20.17.05.05.11.11.16.16-6.69,5.82-10.95,13.5-11.39,22.08-.46,8.89,2.74,17.43,9.02,24.05,5.62,5.92,16.31,12.97,35.33,12.97s29.85-6.59,35.36-12.12c5.91-5.93,9.03-13.5,9.02-21.89-.02-9.68-4.22-18.13-11.32-24.43ZM51.11,38.68c.07,0,.13,0,.2,0,10.3.06,19.01,3.93,19.02,8.44,0,.66-.12,1.39-1.04,2.31-1.01,1.01-5.21,4.31-16.89,4.31-10.91,0-15.21-3.3-16.55-4.72-.97-1.03-1.46-2.15-1.4-3.22.11-1.84,6-7.12,16.66-7.12ZM71.64,95.7c-3.45,3.45-10.46,5.43-19.24,5.43s-15.21-2.09-18.81-5.88c-1.94-2.04-2.93-4.59-2.79-7.18.25-4.85,8.03-11.56,20.16-11.56.07,0,.15,0,.22,0,9.16.06,22.8,3.69,22.82,13.43,0,2.27-.77,4.15-2.36,5.75Z" style="fill:#231815;"/></svg>