<?xml version="1.0" encoding="UTF-8"?><svg id="a" xmlns="http://www.w3.org/2000/svg" viewBox="0 0 105.31 152"><path d="M48.2,123.92c-21.21,0-32.47-9.58-34.52-11.52-4.58-4.31-4.79-11.52-.48-16.1,4.3-4.56,11.47-4.79,16.04-.53.43.37,6.43,5.37,18.96,5.37.12,0,.23,0,.35,0,11.5-.09,22.28-2.94,25.19-21.01-7.39,3.88-15.93,5.8-24.99,5.55-24.84-.7-42.87-14.96-42.87-33.91,0-21.53,16.87-35.44,42.98-35.44,15.64,0,27.19,3.98,35.32,12.17,4.93,4.97,8.45,11.33,10.59,19.22.09.3.17.6.24.91,1.59,6.24,2.34,13.41,2.28,21.58-.25,34.4-17.5,53.48-48.57,53.71-.18,0-.36,0-.53,0ZM48.86,39.1c-13.4,0-20.19,4.26-20.19,12.66,0,5.08,7.93,10.78,20.73,11.14,14.02.35,20.84-7.97,22.7-11.46-1.03-2.9-2.39-5.2-4.08-6.89-3.63-3.66-9.9-5.44-19.16-5.44Z" style="fill:#231815;"/></svg>