<?xml version="1.0" encoding="UTF-8"?><svg id="a" xmlns="http://www.w3.org/2000/svg" viewBox="0 0 106.89 140"><path d="M40.69,124c-15.79,0-32.69-12.33-32.69-30.69,0-12.55,8.18-21.58,16.34-27.78-4.22-4.87-7.44-10.32-8.22-17.66-.81-7.52,2.01-15.68,7.54-21.83,5.49-6.11,12.85-9.48,20.73-9.48,14.37,0,29.76,10.41,29.96,29.7.11,10.89-6.84,18.27-13.7,23.27l9.92,9.96c1.63-1.57,3.16-3.03,4.46-4.27,4.09-3.87,11.7-11.09,19.62-3.81,4.54,4.17,4.94,10.99.93,15.85-.73.89-1.57,1.64-2.48,2.24-1.26,1.16-3.56,3.34-6.45,6.12l8.91,8.94c4.44,4.46,4.43,11.67-.03,16.11-4.46,4.44-11.67,4.43-16.11-.03l-9.13-9.17c-.2.19-.39.38-.58.57-7.52,7.93-17.28,11.95-29.01,11.95ZM40.73,81.82c-4.87,3.28-9.95,7.56-9.95,11.49,0,4.51,6.01,7.91,9.91,7.91,5.57,0,9.33-1.48,12.57-4.94.12-.12.23-.25.36-.37,0,0,.21-.2.59-.57l-13.48-13.52ZM78,72.77s0,0,0,.01c0,0,0,0,0-.01ZM44.39,39.34c-1.7,0-3,1.04-3.78,1.92-1.41,1.57-1.92,3.39-1.83,4.18.24,2.23,1.72,4.26,5.26,7.79,3.34-2.08,7.55-5.01,7.53-6.74-.07-6.81-5.99-7.15-7.17-7.15Z" style="fill:#231815;"/></svg>