<?xml version="1.0" encoding="UTF-8"?><svg id="a" xmlns="http://www.w3.org/2000/svg" viewBox="0 0 109.29 140"><path d="M66.08,124.41H19.39c-6.29,0-11.39-5.1-11.39-11.39V28.27c0-6.29,5.1-11.39,11.39-11.39h41.32c19.46,0,34.13,13.63,34.13,31.71,0,6.79-1.8,13.05-5.15,18.15,6.66,5.62,11.13,13.76,11.13,24.21,0,20.32-13.64,33.45-34.74,33.45ZM30.78,101.63h35.3c9.92,0,11.95-4.27,11.95-10.67,0-7.78-8.68-10.6-14.52-10.6-.52,0-1.08,0-1.66,0-.5,0-1,0-1.51,0-8.34.03-20.88.17-29.57.27v21ZM30.78,39.66v18.18c8.71-.1,21.15-.24,29.49-.27.05,0,.1,0,.14,0,.4,0,.8,0,1.18,0,2.94-.06,6.44-.59,8.35-2.47,1.84-1.82,2.11-4.86,2.11-6.51,0-5.42-4.45-8.93-11.35-8.93h-29.93Z" style="fill:#231815;"/></svg>