<?xml version="1.0" encoding="UTF-8"?><svg id="a" xmlns="http://www.w3.org/2000/svg" viewBox="0 0 113.73 140"><path d="M59.28,123.82h0c-13.76,0-26.49-5.21-35.86-14.67-10.11-10.2-15.6-24.41-15.46-40,.29-31.69,27.69-52.97,53.09-52.97s37.87,14.17,39.09,15.78c3.79,5.02,2.78,12.17-2.24,15.95-5.02,3.79-12.17,2.78-15.95-2.24-.11-.11-5.82-6.71-20.89-6.71s-30.15,12.21-30.31,30.4c-.09,9.47,3.06,17.9,8.86,23.76,5.13,5.18,11.94,7.92,19.68,7.92,17.62,0,25.15-10.46,25.46-10.91,3.43-5.27,10.43-6.7,15.71-3.27,5.28,3.43,6.72,10.56,3.29,15.84-.56.86-14.08,21.12-44.46,21.12Z" style="fill:#231815;"/></svg>