<?xml version="1.0" encoding="UTF-8"?><svg id="a" xmlns="http://www.w3.org/2000/svg" viewBox="0 0 119.02 152"><path d="M99.2,59.46h-32.77c-6.29,0-11.39,5.1-11.39,11.39s5.1,11.39,11.39,11.39h21.37v3.72c-1.37,3.92-11.77,15.04-28.44,15.04-7.74,0-14.54-2.74-19.68-7.92-5.8-5.85-8.94-14.29-8.86-23.76.17-18.18,15.8-30.4,30.31-30.4s20.21,5.85,20.69,6.44c3.57,5.04,10.54,6.33,15.68,2.85,5.21-3.53,6.58-10.61,3.05-15.82-1.84-2.71-12.37-16.25-39.42-16.25-25.41,0-52.8,21.29-53.09,52.97-.14,15.59,5.35,29.8,15.46,40,9.37,9.45,22.1,14.66,35.86,14.66h0c10.3,0,20.35-2.72,29.08-7.71,1.52,4.5,5.73,7.77,10.75,7.77,6.29,0,11.39-5.1,11.39-11.39v-41.6c0-6.29-5.1-11.39-11.39-11.39Z" style="fill:#231815;"/></svg>