<?xml version="1.0" encoding="UTF-8"?><svg id="a" xmlns="http://www.w3.org/2000/svg" viewBox="0 0 104.8 140"><path d="M93.69,105.02l-34.74-41.52,32.33-27.11c4.82-4.04,5.45-11.23,1.41-16.05-4.04-4.82-11.23-5.45-16.05-1.41l-41.04,34.41s0,0,0,0,0,0,0,0l-4.81,4.04v-29.73c0-6.29-5.1-11.39-11.39-11.39s-11.39,5.1-11.39,11.39v84.67c0,6.29,5.1,11.39,11.39,11.39s11.39-5.1,11.39-11.39v-25.21l10.71-8.98,34.72,41.5c2.25,2.69,5.49,4.08,8.74,4.08,2.58,0,5.17-.87,7.31-2.66,4.83-4.04,5.46-11.22,1.43-16.05Z" style="fill:#231815;"/></svg>