<?xml version="1.0" encoding="UTF-8"?><svg id="a" xmlns="http://www.w3.org/2000/svg" viewBox="0 0 138.49 152"><path d="M119.1,124c-6.29,0-11.39-5.1-11.39-11.39v-46.23l-29.45,45.54c-2.1,3.25-5.7,5.21-9.56,5.21h-.01c-3.87,0-7.47-1.97-9.57-5.23l-28.33-44.02v44.74c0,6.29-5.1,11.39-11.39,11.39s-11.39-5.1-11.39-11.39V29.11c0-5.05,3.33-9.5,8.18-10.93,4.86-1.42,10.06.52,12.79,4.77l39.74,61.76,40.82-63.11c2.74-4.24,7.94-6.17,12.79-4.74,4.84,1.43,8.17,5.88,8.17,10.93v84.83c0,6.29-5.1,11.39-11.39,11.39Z" style="fill:#231815;"/></svg>