<?xml version="1.0" encoding="UTF-8"?><svg id="a" xmlns="http://www.w3.org/2000/svg" viewBox="0 0 101.68 152"><path d="M82.88,97.27c4.1-13.81,10.11-35.12,10.39-36.13,1.61-5.73-1.72-11.68-7.45-13.29-5.74-1.61-11.68,1.72-13.29,7.45-.08.27-7.78,27.6-11.67,40.35-.64,2.09-2.12,6.96-14.16,6.96-.08,0-.17,0-.25,0-4.34-.02-6.6-2.84-7.69-4.96l7.88-39.51c1.16-5.84-2.62-11.51-8.46-12.67-5.81-1.16-11.51,2.62-12.67,8.46l-8.25,41.37c-.2.67-.34,1.36-.41,2.06l-8.63,41.76c-1.16,5.84,2.62,11.51,8.46,12.67.71.14,1.42.21,2.12.21,5.03,0,9.53-3.55,10.55-8.67l4.66-21.85c3.51,1.62,7.59,2.64,12.33,2.67.12,0,.24,0,.36,0,10.16,0,17.43-2.44,22.66-5.86,2.32,2.16,4.74,3.7,6.72,4.59,1.43.64,2.92.94,4.39.94,4.12,0,8.05-2.38,9.84-6.38,2.43-5.43,0-11.8-5.44-14.23-.5-.22-2.93-1.53-2.03-5.53.03-.14.02-.27.05-.41Z" style="fill:#14327a;"/></svg>