<?xml version="1.0" encoding="UTF-8"?><svg id="a" xmlns="http://www.w3.org/2000/svg" viewBox="0 0 96.79 140"><path d="M77.4,38.8c-6.29,0-11.39,5.1-11.39,11.39v33.3c0,11.69-5.93,17.61-17.61,17.61-4.82,0-17.61,0-17.61-19.88v-31.03c0-6.29-5.1-11.39-11.39-11.39s-11.39,5.1-11.39,11.39v78.42c0,6.29,5.1,11.39,11.39,11.39s11.39-5.1,11.39-11.39v-8.05c5.15,2.16,11.04,3.32,17.61,3.32,7.9,0,14.53-1.67,20.02-4.46,2.08,2.69,5.31,4.46,8.98,4.46,6.29,0,11.39-5.1,11.39-11.39v-62.3c0-6.29-5.1-11.39-11.39-11.39Z" style="fill:#231815;"/></svg>