<?xml version="1.0" encoding="UTF-8"?><svg id="a" xmlns="http://www.w3.org/2000/svg" viewBox="0 0 104 140"><path d="M19.41,123.81c-.62,0-1.24-.05-1.86-.15-5.8-.96-9.86-6.14-9.53-11.88.09-4.12.04-52.35-.02-84.16,0-4.83,3.03-9.14,7.59-10.76,4.56-1.61,9.63-.18,12.67,3.58l44.96,55.68V27.59c0-6.29,5.1-11.39,11.39-11.39s11.39,5.1,11.39,11.39v80.76c0,4.83-3.04,9.13-7.6,10.74-4.54,1.61-9.62.17-12.66-3.58L30.83,59.89c.07,52.76-.03,53.32-.2,54.38-.92,5.58-5.75,9.54-11.23,9.54Z" style="fill:#231815;"/></svg>