<?xml version="1.0" encoding="UTF-8"?><svg id="a" xmlns="http://www.w3.org/2000/svg" viewBox="0 0 115.99 152"><path d="M55.21,124c-.39,0-.79,0-1.18-.01-28.81-.58-46.03-26.46-46.03-51.14,0-33.17,20-55.46,49.77-55.46s49.82,21.2,49.82,52.74c0,15.51-5.56,29.51-15.67,39.42-9.54,9.35-22.53,14.45-36.7,14.45ZM57.77,40.17c-24.36,0-26.99,22.85-26.99,32.67,0,13.41,9.06,28.07,23.7,28.37,8.59.16,16.01-2.57,21.49-7.93,5.7-5.58,8.84-13.8,8.84-23.15,0-18.76-10.11-29.96-27.03-29.96Z" style="fill:#231815;"/></svg>