<?xml version="1.0" encoding="UTF-8"?><svg id="a" xmlns="http://www.w3.org/2000/svg" viewBox="0 0 111.03 152"><path d="M92.26,124h-20.82c-5.85,0-10.64-4.67-10.77-10.53-.07-3.02-.05-18.57,7.16-28.19.58-.78,1.2-1.58,1.84-2.4,4.77-6.16,9.7-12.54,9.44-23.08-.08-3.5-4.98-22.54-24.58-22.54-21.11,0-22.6,22.31-22.61,22.54-.26,10.54,4.67,16.92,9.44,23.08.64.83,1.26,1.63,1.84,2.4,7.21,9.62,7.23,25.17,7.16,28.19-.14,5.85-4.92,10.52-10.77,10.52h-20.82c-5.95,0-10.77-4.82-10.77-10.77s4.82-10.77,10.77-10.77h8.87c-.46-1.84-1.02-3.36-1.68-4.24-.52-.69-1.07-1.41-1.64-2.15-5.73-7.4-14.38-18.59-13.94-36.79.44-18.09,14.43-43.56,44.15-43.56,31.84,0,45.75,28.37,46.13,43.56.44,18.2-8.21,29.39-13.94,36.79-.57.74-1.12,1.45-1.64,2.15-.67.9-1.24,2.43-1.68,4.24h8.87c5.95,0,10.77,4.82,10.77,10.77s-4.82,10.77-10.77,10.77Z" style="fill:#14327a;"/></svg>