<?xml version="1.0" encoding="UTF-8"?><svg id="a" xmlns="http://www.w3.org/2000/svg" viewBox="0 0 96.79 152"><path d="M88.79,81.26c0-26.31-15.48-42.66-40.4-42.66-8.08,0-14.7,1.64-20.12,4.33-2.09-2.62-5.27-4.33-8.88-4.33-6.29,0-11.39,5.1-11.39,11.39v90.61c0,6.29,5.1,11.39,11.39,11.39s11.39-5.1,11.39-11.39v-20.24c5.15,2.16,11.04,3.32,17.61,3.32,27.91,0,40.4-20.29,40.4-40.4,0-.35-.07-.68-.1-1.02.03-.34.1-.67.1-1.02ZM48.4,100.9c-4.82,0-17.61,0-17.61-19.88v-2.03c0-11.69,5.93-17.61,17.61-17.61,4.82,0,17.61,0,17.61,19.88,0,.35.07.68.1,1.02-.03.34-.1.67-.1,1.02,0,11.69-5.93,17.61-17.61,17.61Z" style="fill:#231815;"/></svg>