<?xml version="1.0" encoding="UTF-8"?><svg id="a" xmlns="http://www.w3.org/2000/svg" viewBox="0 0 116.43 152"><path d="M104.04,103.62l-6-4.68c4.87-8.36,7.52-18.22,7.52-28.81,0-31.55-20.02-52.74-49.82-52.74S5.97,39.67,5.97,72.84c0,24.69,17.22,50.57,46.03,51.14.4,0,.79.01,1.18.01,10.72,0,20.77-2.94,29.16-8.41l7.69,6c2.08,1.62,4.55,2.41,7,2.41,3.39,0,6.75-1.51,8.99-4.39,3.87-4.96,2.98-12.12-1.98-15.99ZM52.46,101.21c-14.64-.29-23.7-14.95-23.7-28.37,0-9.82,2.63-32.67,26.99-32.67,16.93,0,27.03,11.2,27.03,29.96,0,5.33-1.05,10.27-2.99,14.59l-17.02-13.27c-4.96-3.87-12.12-2.98-15.99,1.98-3.87,4.96-2.98,12.12,1.98,15.99l13.53,10.55c-3.05.87-6.34,1.31-9.84,1.24Z" style="fill:#231815;"/></svg>