<?xml version="1.0" encoding="UTF-8"?><svg id="a" xmlns="http://www.w3.org/2000/svg" viewBox="0 0 82.98 140"><path d="M24.13,64.47c-6.27,0-11.37-5.07-11.39-11.35l-.1-25.74c-.02-6.29,5.06-11.41,11.34-11.44h.05c6.27,0,11.37,5.07,11.39,11.35l.1,25.74c.02,6.29-5.06,11.41-11.34,11.44h-.05Z" style="fill:#231815;"/><path d="M58.84,64.47c-6.27,0-11.37-5.07-11.39-11.35l-.1-25.74c-.02-6.29,5.06-11.41,11.34-11.44h.05c6.27,0,11.37,5.07,11.39,11.35l.1,25.74c.02,6.29-5.06,11.41-11.34,11.44h-.05Z" style="fill:#231815;"/></svg>