<?xml version="1.0" encoding="UTF-8"?><svg id="a" xmlns="http://www.w3.org/2000/svg" viewBox="0 0 108.42 152"><path d="M98.03,103.44l-19.2-24.76c11.29-5.04,18.03-15.66,18.03-29.86,0-15.54-11.71-31.6-31.31-31.6-13.17,0-46.1-.14-46.1-.14-3.01.04-5.94,1.18-8.09,3.32-2.15,2.14-3.35,5.04-3.35,8.07v84.14c0,6.29,5.1,11.39,11.39,11.39s11.39-5.1,11.39-11.39v-30.99c5.9.1,13.77.21,21.7.27l27.54,35.51c2.24,2.9,5.61,4.41,9.01,4.41,2.44,0,4.9-.78,6.97-2.39,4.97-3.86,5.88-11.01,2.02-15.98ZM30.78,39.91c10.82.04,26.59.1,34.76.1s8.53,8.73,8.53,8.82c0,7.53-3.13,10.32-11.54,10.32-10.93,0-23.42-.18-31.75-.32v-18.92Z" style="fill:#231815;"/></svg>