<?xml version="1.0" encoding="UTF-8"?><svg id="a" xmlns="http://www.w3.org/2000/svg" viewBox="0 0 100.96 140"><path d="M50.37,124c-23.54,0-37.39-12.7-38.89-14.15-4.53-4.37-4.66-11.58-.29-16.11,4.37-4.53,11.58-4.66,16.11-.29.25.22,8.64,7.76,23.07,7.76h0c10.73,0,19.8-3.75,19.8-8.18s0-7.95-22.68-12.69c-31.63-6.61-38.27-21.68-38.27-33.16,0-14.14,10.34-30.66,39.49-30.66h0c20.12,0,32.2,8.45,33.51,9.41,5.07,3.73,6.16,10.86,2.44,15.93-3.7,5.03-10.74,6.14-15.81,2.52-.49-.33-7.69-5.07-20.14-5.07h0c-3.92,0-16.7.57-16.7,7.88,0,6.17,15.42,9.87,20.15,10.86,16.25,3.39,40.81,8.53,40.81,34.99,0,18.23-17.51,30.96-42.58,30.97h0Z" style="fill:#231815;"/></svg>