<?xml version="1.0" encoding="UTF-8"?><svg id="a" xmlns="http://www.w3.org/2000/svg" viewBox="0 0 109.26 152"><path d="M85.99,82.02h-1.75v-25.6h1.75c6.29,0,11.39-5.1,11.39-11.39s-5.1-11.39-11.39-11.39h-1.75v-5.98c0-6.29-5.1-11.39-11.39-11.39s-11.39,5.1-11.39,11.39v5.98h-12.52v-5.98c0-6.29-5.1-11.39-11.39-11.39s-11.39,5.1-11.39,11.39v5.98h-2.89c-6.29,0-11.39,5.1-11.39,11.39s5.1,11.39,11.39,11.39h2.89v25.6h-2.89c-6.29,0-11.39,5.1-11.39,11.39s5.1,11.39,11.39,11.39h2.89v7.52c0,6.29,5.1,11.39,11.39,11.39s11.39-5.1,11.39-11.39v-7.52h12.52v7.52c0,6.29,5.1,11.39,11.39,11.39s11.39-5.1,11.39-11.39v-7.52h1.75c6.29,0,11.39-5.1,11.39-11.39s-5.1-11.39-11.39-11.39ZM48.95,82.02v-25.6h12.52v25.6h-12.52Z" style="fill:#231815;"/></svg>