<?xml version="1.0" encoding="UTF-8"?><svg id="a" xmlns="http://www.w3.org/2000/svg" viewBox="0 0 140.88 152"><path d="M45.2,124c-5.01,0-9.43-3.27-10.89-8.07L8.5,31.38c-1.84-6.02,1.55-12.38,7.57-14.22,6.01-1.83,12.39,1.55,14.22,7.57l14.9,48.83,14.92-48.94c1.46-4.8,5.89-8.07,10.9-8.07h.05c5.03.02,9.45,3.34,10.88,8.16l14.11,47.72,14.11-47.72c1.78-6.03,8.13-9.47,14.16-7.69,6.03,1.78,9.48,8.12,7.69,14.15l-25.03,84.66c-1.43,4.84-5.88,8.16-10.92,8.16s-9.49-3.32-10.92-8.16l-14.28-48.28-14.74,48.37c-1.46,4.79-5.88,8.07-10.89,8.07h0Z" style="fill:#231815;"/></svg>