<?xml version="1.0" encoding="UTF-8"?><svg id="a" xmlns="http://www.w3.org/2000/svg" viewBox="0 0 104.93 152"><path d="M94.54,105.64l-27.83-36.02,27.79-35.59c3.87-4.96,2.99-12.12-1.97-15.99-4.95-3.87-12.12-2.99-15.99,1.97l-24.21,31-23.92-30.96c-3.85-4.98-11-5.89-15.98-2.05-4.98,3.85-5.9,11-2.05,15.98l27.47,35.56-27.44,35.13c-3.87,4.96-2.99,12.12,1.97,15.99,2.08,1.63,4.55,2.41,7,2.41,3.39,0,6.74-1.5,8.99-4.38l23.86-30.55,24.27,31.42c2.24,2.9,5.61,4.43,9.02,4.43,2.43,0,4.89-.78,6.96-2.38,4.98-3.85,5.9-11,2.05-15.98Z" style="fill:#231815;"/></svg>