<?xml version="1.0" encoding="UTF-8"?><svg id="a" xmlns="http://www.w3.org/2000/svg" viewBox="0 0 101.52 140"><path d="M48.78,120.06c-.37,0-.74,0-1.11-.01-24.83-.55-39.67-24.77-39.67-47.87,0-31.73,16.91-52.24,43.09-52.24s42.43,20.06,42.43,49.93c0,15.47-5.16,29.04-14.52,38.2-8.03,7.86-18.46,11.99-30.21,11.99ZM51.09,35.13c-25.89,0-27.9,28.36-27.9,37.05,0,15.46,9.49,32.35,24.81,32.68,8.13.23,15.07-2.47,20.37-7.65,6.42-6.28,9.96-15.99,9.96-27.35,0-21.75-10.18-34.74-27.24-34.74Z" style="fill:#231815;"/></svg>