<?xml version="1.0" encoding="UTF-8"?><svg id="a" xmlns="http://www.w3.org/2000/svg" viewBox="0 0 92.72 152"><path d="M77.13,120H15.6c-2.06,0-4.04-.84-5.47-2.33-1.43-1.49-2.2-3.49-2.12-5.56.07-1.89,1.35-18.86,23.36-33.98,5.99-4.11,11.66-7.43,16.66-10.35,14.34-8.39,19.37-11.96,19.43-19.17.02-2.03-.41-5.89-3.47-9-3.17-3.22-8.56-4.94-15.57-4.97h-.17c-16.89,0-26.86,12.24-27.28,12.77-2.61,3.26-7.37,3.83-10.65,1.24-3.28-2.59-3.87-7.32-1.31-10.61.59-.76,14.76-18.59,39.23-18.59h.24c14.07.07,22.07,5.2,26.31,9.49,5.13,5.2,7.92,12.23,7.85,19.8-.14,16.48-12.57,23.74-26.95,32.15-4.78,2.79-10.2,5.96-15.73,9.76-7.35,5.05-11.49,10.13-13.82,14.15h50.98c4.2,0,7.59,3.4,7.59,7.59s-3.4,7.59-7.59,7.59Z" style="fill:#231815;"/></svg>