<?xml version="1.0" encoding="UTF-8"?><svg id="a" xmlns="http://www.w3.org/2000/svg" viewBox="0 0 96.72 152"><path d="M46.17,119.73c-24.05,0-35.82-12.58-36.34-13.15-2.83-3.1-2.61-7.91.49-10.74,3.1-2.83,7.91-2.61,10.74.49.29.3,9.07,9.17,28.22,8.1,8.99-.5,24.21-4.8,24.21-17.7,0-10.29-10.85-12.4-10.97-12.42-2.91-.34-8.88-.28-11.38-.21-.24,0-.38.01-.38.01-4.22.08-7.69-3.19-7.82-7.38-.12-4.2,3.18-7.7,7.37-7.82.09,0,.24,0,.44-.01,1.71-.05,8.17-.22,11.98-.25,2.94-.02,8.43-4.7,8.53-11.31.02-1.45-.71-4.68-3.62-7.63-3.55-3.6-9.1-5.51-16.05-5.51-16.3,0-22.71,6.54-22.98,6.82-2.75,3.17-7.5,3.45-10.67.7-3.17-2.75-3.46-7.62-.7-10.79,1.06-1.22,11.03-11.94,34.36-11.94,14.05,0,22.38,5.46,26.89,10.05,5.1,5.19,8.09,12.12,7.99,18.54-.11,6.88-3.02,13.48-7.43,18.34,5.46,4.63,9.66,11.6,9.66,20.82,0,21.12-20,31.85-38.57,32.89-1.36.08-2.68.11-3.97.11Z" style="fill:#14327a;"/></svg>