<?xml version="1.0" encoding="UTF-8"?><svg id="a" xmlns="http://www.w3.org/2000/svg" viewBox="0 0 94.48 140"><path d="M45.21,119.93c-23.46,0-34.79-11.71-35.29-12.23-2.88-3.05-2.74-7.86.31-10.74,3.06-2.88,7.86-2.74,10.74.31.27.27,8.7,8.41,27.47,7.38,7.96-.45,23.01-4.77,23.01-17.94,0-2.65-.8-4.67-2.51-6.37-4.54-4.49-14.26-5.72-18.64-5.88-.78,0-1.32-.01-1.57-.02-4.1-.18-7.32-3.58-7.27-7.69.05-4.11,3.36-7.43,7.47-7.49.26,0,.78,0,1.52,0,3.5-.08,10.98-.95,14.75-4.54,1.67-1.58,2.46-3.59,2.51-6.32.03-2.2-.88-5.74-3.57-8.47-3.06-3.1-7.78-4.68-14.05-4.68-17.05,0-25.71,6.42-25.79,6.48-3.3,2.59-8.07,2.01-10.66-1.29-2.59-3.3-2.01-8.07,1.29-10.66,1.27-1,13.03-9.72,35.17-9.72,13.06,0,20.73,5.01,24.87,9.21,5.08,5.16,8.05,12.4,7.94,19.36-.11,6.83-2.63,12.76-7.3,17.16-.1.09-.2.18-.29.27,1.52.99,2.95,2.12,4.27,3.41,4.62,4.55,7.07,10.5,7.07,17.22,0,21.31-19.36,32.1-37.35,33.1-1.4.08-2.75.12-4.07.12Z" style="fill:#231815;"/></svg>