<?xml version="1.0" encoding="UTF-8"?><svg id="a" xmlns="http://www.w3.org/2000/svg" viewBox="0 0 99.81 152"><path d="M69.73,120h-.02c-4.19-.01-7.58-3.42-7.57-7.62l.04-13.22-46.61-.16c-2.95,0-5.63-1.73-6.87-4.41-1.24-2.68-.81-5.83,1.09-8.09L64.2,22.09c2.06-2.44,5.42-3.33,8.42-2.23,3,1.1,4.98,3.96,4.97,7.15l-.18,57.01,6.82.02c4.19.01,7.58,3.43,7.57,7.62-.01,4.19-3.41,7.57-7.59,7.57h-.03l-6.82-.02-.04,13.21c-.01,4.19-3.41,7.57-7.59,7.57ZM31.9,83.87l30.32.1.11-36.14-30.44,36.04Z" style="fill:#231815;"/></svg>