<?xml version="1.0" encoding="UTF-8"?><svg id="a" xmlns="http://www.w3.org/2000/svg" viewBox="0 0 98.52 152"><path d="M43.65,120.07c-16.64,0-29.91-4.95-30.76-5.27-3.92-1.49-5.89-5.88-4.39-9.8,1.49-3.92,5.87-5.89,9.8-4.39.25.09,26.59,9.8,47.95-.39,8.38-4,9.97-11.63,8.67-17.44-1.5-6.69-7.66-14.53-20.07-14.57h-.27c-18.33,0-31.47,6.77-31.6,6.84-2.37,1.24-5.22,1.15-7.5-.24-2.28-1.39-3.67-3.88-3.64-6.55l.41-40.59c.04-4.15,3.41-7.5,7.57-7.52l56.13-.2h.03c4.18,0,7.58,3.38,7.59,7.57.01,4.19-3.37,7.61-7.57,7.62l-48.64.18-.22,21.87c6.81-2.11,16.31-4.16,27.44-4.16h.33c19.99.07,31.9,13.33,34.84,26.43,3.2,14.26-3.61,28.11-16.95,34.48-9.72,4.64-19.94,6.15-29.13,6.15Z" style="fill:#231815;"/></svg>