<?xml version="1.0" encoding="UTF-8"?><svg id="a" xmlns="http://www.w3.org/2000/svg" viewBox="0 0 99.7 152"><path d="M52.58,119.94c-14.55,0-25.21-3.61-32.58-11.03-4.45-4.48-7.64-10.28-9.61-17.52-.09-.28-.17-.56-.22-.85-1.51-5.91-2.22-12.75-2.16-20.58.27-38.33,28.14-49.38,44.57-49.86,21.05-.62,31.66,9.56,32.8,10.72,2.93,3,2.87,7.81-.13,10.74-2.98,2.9-7.74,2.87-10.67-.06-.43-.41-7.21-6.64-21.55-6.22-4.8.14-28.21,2.37-29.75,32.11,5.96-4.59,15.63-9.49,29.31-9.12,22.67.64,39.13,13.29,39.13,30.08,0,15.28-10.28,31.6-39.12,31.6ZM25.34,88.49c1.25,4.1,3.06,7.32,5.44,9.71,4.43,4.47,11.36,6.55,21.8,6.55s23.94-2.85,23.94-16.41c0-8.1-10.47-14.51-24.36-14.9-18.32-.56-25.66,11.76-26.81,15.05Z" style="fill:#231815;"/></svg>