<?xml version="1.0" encoding="UTF-8"?><svg id="a" xmlns="http://www.w3.org/2000/svg" viewBox="0 0 97.19 140"><path d="M75.63,65.36c1.19-.85,2.31-1.75,3.31-2.75,4.32-4.33,6.6-9.78,6.59-15.76-.04-15.99-15.62-27.24-37.89-27.38-.11,0-.21,0-.31,0-19.19,0-34.81,10.94-35.62,25.01-.37,6.33,1.96,12.49,6.54,17.35.92.97,2.02,1.98,3.31,2.97-7.9,5.37-13.05,13.18-13.52,22.08-.41,7.84,2.43,15.38,7.99,21.23,5.11,5.38,14.9,11.79,32.58,11.79,14.19,0,25.49-3.81,32.68-11,5.19-5.2,7.92-11.84,7.91-19.2-.02-10-5.13-18.53-13.56-24.33ZM47.31,34.65c.07,0,.15,0,.22,0,11.04.07,22.78,4.38,22.8,12.23,0,1.91-.7,3.54-2.15,5-3.44,3.45-10.58,5.43-19.58,5.43-11.95,0-17.23-3.7-19.31-5.91-1.71-1.81-2.55-3.9-2.43-6.05.26-4.49,8.15-10.7,20.45-10.7ZM70.53,98.16c-4.21,4.22-12,6.55-21.93,6.55-12.28,0-18.51-3.84-21.56-7.06-2.66-2.8-4.02-6.35-3.83-9.99.38-7.35,10.08-15.16,23.95-15.16.08,0,.17,0,.25,0,13.2.09,26.57,6.04,26.59,17.22,0,3.29-1.16,6.12-3.47,8.44Z" style="fill:#231815;"/></svg>