<?xml version="1.0" encoding="UTF-8"?><svg id="a" xmlns="http://www.w3.org/2000/svg" viewBox="0 0 99.82 140"><path d="M46.52,120c-20.62,0-30.94-9.53-32.06-10.62-3-2.94-3.05-7.74-.11-10.74,2.91-2.97,7.67-3.05,10.66-.18.43.39,7.25,6.35,21.51,6.35.13,0,.25,0,.39,0,13.32-.1,28.58-3.92,29.67-32.22-5.96,4.61-15.6,9.55-29.39,9.17-22.7-.64-39.18-13.31-39.18-30.12,0-15.3,10.29-31.64,39.18-31.64,14.57,0,25.25,3.61,32.63,11.05,4.47,4.5,7.67,10.34,9.64,17.63.07.23.13.46.18.69,1.52,5.94,2.24,12.81,2.19,20.69-.3,41-24.53,49.79-44.8,49.94-.17,0-.34,0-.5,0ZM47.18,35.19c-10.94,0-23.99,2.85-23.99,16.45,0,8.12,10.5,14.55,24.42,14.94.38.01.75.02,1.11.02,17.56,0,24.64-11.89,25.76-15.11-1.26-4.11-3.07-7.33-5.45-9.73-4.44-4.48-11.39-6.56-21.85-6.56Z" style="fill:#231815;"/></svg>