<?xml version="1.0" encoding="UTF-8"?><svg id="a" xmlns="http://www.w3.org/2000/svg" viewBox="0 0 99.68 152"><path d="M83.89,119.93c-1.95,0-3.9-.75-5.38-2.23l-11.78-11.83c-1.15,1.12-2.27,2.21-3.33,3.24-6.88,7.28-15.48,10.82-26.31,10.82-13.67,0-28.9-11.05-28.9-26.9,0-12.6,9.8-21.48,18.26-27.2-5.26-5.34-9.33-10.78-10.17-18.65-.69-6.46,1.77-13.53,6.59-18.89,4.76-5.3,11.12-8.22,17.91-8.22,12.55,0,25.98,9.09,26.16,25.94.12,11.1-8.54,18.08-15.83,22.66l15.8,15.85c2.61-2.52,5.14-4.95,7.13-6.83,4.49-4.25,9.12-8.65,14.44-3.77,2.58,2.37,3.65,6.9.57,10.64-.55.66-1.18,1.21-1.88,1.64-1.63,1.49-5.27,4.97-9.54,9.08l11.64,11.68c2.96,2.97,2.95,7.78-.02,10.74-1.48,1.48-3.42,2.22-5.36,2.22ZM37.64,76.68c-6.4,3.96-14.26,9.77-14.26,16.35,0,7.15,8.12,11.71,13.71,11.71,6.64,0,11.37-1.89,15.34-6.14.08-.08.16-.16.24-.24,0,0,1.31-1.28,3.33-3.25l-18.36-18.43ZM77.33,74.91h0s0,0,0,0ZM40.78,35.26c-3.1,0-5.31,1.73-6.61,3.18-2.19,2.44-2.98,5.33-2.79,7.12.43,3.97,3.09,6.98,8.49,12.15,5.01-2.93,11.92-7.16,11.88-11.54-.09-8.61-6.94-10.91-10.97-10.91Z" style="fill:#231815;"/></svg>