<?xml version="1.0" encoding="UTF-8"?><svg id="a" xmlns="http://www.w3.org/2000/svg" viewBox="0 0 101.29 152"><path d="M62.29,119.97H15.59c-4.19,0-7.59-3.4-7.59-7.59V27.63c0-4.19,3.4-7.59,7.59-7.59h41.32c17.29,0,30.33,12,30.33,27.92,0,7.38-2.37,14.03-6.7,18.9,7.43,4.96,12.68,12.87,12.68,23.46,0,18.29-11.86,29.66-30.94,29.66ZM23.19,104.78h39.1c10.75,0,15.75-4.6,15.75-14.47,0-10.56-10.95-14.4-18.32-14.4-.54,0-1.11,0-1.71,0-.48,0-.96.01-1.45,0-9.66.04-24.94.21-33.38.31v28.55ZM23.19,35.22v25.82c8.49-.1,23.66-.28,33.32-.31.04,0,.08,0,.11,0,.43,0,.84,0,1.25,0,4.98-.1,8.66-1.3,10.95-3.57,2.82-2.79,3.24-6.97,3.24-9.21,0-6.33-4.68-12.73-15.14-12.73H23.19Z" style="fill:#231815;"/></svg>