<?xml version="1.0" encoding="UTF-8"?><svg id="a" xmlns="http://www.w3.org/2000/svg" viewBox="0 0 106.02 152"><path d="M55.52,119.7h0c-12.73,0-24.51-4.81-33.16-13.54-9.39-9.48-14.49-22.72-14.36-37.29.27-29.43,25.71-49.21,49.3-49.21,26.04,0,35.39,13.21,36.37,14.72,2.29,3.52,1.29,8.22-2.22,10.51-3.46,2.26-8.09,1.32-10.41-2.08-.41-.55-6.32-7.96-23.74-7.96-16.32,0-33.92,13.73-34.11,34.16-.1,10.49,3.44,19.89,9.96,26.46,5.86,5.91,13.6,9.04,22.37,9.04,19.81,0,28.23-12.04,28.58-12.55,2.34-3.44,7.05-4.39,10.51-2.08,3.46,2.31,4.45,6.94,2.19,10.43-.51.79-12.93,19.4-41.27,19.4Z" style="fill:#231815;"/></svg>