<?xml version="1.0" encoding="UTF-8"?><svg id="a" xmlns="http://www.w3.org/2000/svg" viewBox="0 0 110.97 140"><path d="M102.95,71.12v-.26c0-4.19-3.4-7.59-7.59-7.59h-32.77c-4.2,0-7.59,3.4-7.59,7.59s3.4,7.59,7.59,7.59h24.72c-.77,5.19-2.78,12.38-7.97,17.84-5.37,5.65-13.39,8.52-23.82,8.52-8.77,0-16.51-3.13-22.37-9.04-6.52-6.58-10.05-15.98-9.96-26.47.19-20.43,17.78-34.16,34.11-34.16s23.81,8.13,24.24,8.62c2.7,3.15,7.45,3.55,10.64.87,3.21-2.7,3.63-7.49.94-10.7-.48-.57-12-13.98-35.83-13.98S8.27,39.72,8,69.16c-.13,14.57,4.97,27.82,14.36,37.3,8.65,8.73,20.43,13.54,33.16,13.54s24.12-3.65,32.24-10.8v3.26c0,4.19,3.4,7.59,7.59,7.59s7.59-3.4,7.59-7.59v-38.65c.04-1.32.02-2.25,0-2.68Z" style="fill:#231815;"/></svg>