<?xml version="1.0" encoding="UTF-8"?><svg id="a" xmlns="http://www.w3.org/2000/svg" viewBox="0 0 96.75 152"><path d="M86.98,107.46l-37.17-44.43,35.24-29.55c3.21-2.69,3.63-7.48.94-10.7-2.69-3.21-7.48-3.64-10.7-.94l-41.05,34.42s0,0,0,0,0,0,0,0l-11.05,9.27V27.67c0-4.19-3.4-7.59-7.59-7.59s-7.59,3.4-7.59,7.59v84.67c0,4.19,3.4,7.59,7.59,7.59s7.59-3.4,7.59-7.59v-26.98l14.98-12.56,37.16,44.42c1.5,1.79,3.66,2.72,5.83,2.72,1.72,0,3.45-.58,4.87-1.77,3.22-2.69,3.64-7.48.95-10.7Z" style="fill:#231815;"/></svg>