<?xml version="1.0" encoding="UTF-8"?><svg id="a" xmlns="http://www.w3.org/2000/svg" viewBox="0 0 130.89 140"><path d="M115.3,120.01c-4.2,0-7.59-3.4-7.59-7.59v-59.1l-36.43,56.34c-1.4,2.16-3.8,3.47-6.38,3.47h0c-2.58,0-4.98-1.32-6.38-3.48L23.19,54.76v57.66c0,4.19-3.4,7.59-7.59,7.59s-7.59-3.4-7.59-7.59V28.92c0-3.37,2.22-6.34,5.45-7.29,3.23-.95,6.71.34,8.53,3.18l42.93,66.71L108.92,23.46c1.83-2.82,5.3-4.11,8.53-3.16,3.23.95,5.44,3.92,5.44,7.28v84.83c0,4.19-3.4,7.59-7.59,7.59Z" style="fill:#231815;"/></svg>