<?xml version="1.0" encoding="UTF-8"?><svg id="a" xmlns="http://www.w3.org/2000/svg" viewBox="0 0 89.2 140"><path d="M73.6,42.4c-4.2,0-7.59,3.4-7.59,7.59v33.3c0,7.99-2.78,21.41-21.41,21.41-14.21,0-21.41-7.97-21.41-23.67v-31.03c0-4.19-3.4-7.59-7.59-7.59s-7.59,3.4-7.59,7.59v81.04c0,4.19,3.4,7.59,7.59,7.59s7.59-3.4,7.59-7.59v-17.06c5.76,3.84,12.99,5.92,21.41,5.92,9.1,0,16.18-2.27,21.62-5.88.78,3.37,3.78,5.88,7.38,5.88,4.2,0,7.59-3.4,7.59-7.59v-62.3c0-4.19-3.4-7.59-7.59-7.59Z" style="fill:#231815;"/></svg>