<?xml version="1.0" encoding="UTF-8"?><svg id="a" xmlns="http://www.w3.org/2000/svg" viewBox="0 0 95.95 152"><path d="M77.23,95.13c4.13-13.9,10.36-35.99,10.43-36.24,1.14-4.04-1.22-8.24-5.26-9.38-4.03-1.14-8.24,1.22-9.38,5.26-.08.27-7.79,27.63-11.69,40.42-.77,2.52-2.81,9.2-17.2,9.2-.09,0-.17,0-.26,0-6.76-.04-9.83-5.09-10.98-7.75l8.08-40.51c.82-4.12-1.85-8.12-5.97-8.95-4.13-.82-8.13,1.85-8.95,5.97l-8.24,41.32c-.23.63-.34,1.29-.39,1.97l-9.27,46.47c-.82,4.12,1.85,8.12,5.97,8.95.5.1,1,.15,1.5.15,3.55,0,6.73-2.5,7.45-6.12l6.13-30.7c3.83,2.59,8.64,4.38,14.6,4.42.11,0,.22,0,.33,0,10.89,0,18.15-2.98,23.01-6.89,2.51,2.91,5.41,4.89,7.67,5.89,1.01.45,2.06.66,3.1.66,2.91,0,5.69-1.68,6.95-4.51,1.71-3.83,0-8.33-3.84-10.05-.55-.24-5.3-2.57-3.83-9.11.03-.16.03-.31.06-.46Z" style="fill:#14327a;"/></svg>