<?xml version="1.0" encoding="UTF-8"?><svg id="a" xmlns="http://www.w3.org/2000/svg" viewBox="0 0 107.99 152"><path d="M51.42,120c-.37,0-.74,0-1.11-.01-26.48-.53-42.31-24.49-42.31-47.35,0-31.38,18.05-51.66,45.97-51.66s46.02,19.67,46.02,48.94c0,14.49-5.16,27.52-14.53,36.71-8.82,8.64-20.87,13.37-34.05,13.37ZM53.97,36.17c-28.57,0-30.79,27.91-30.79,36.47,0,15.54,10.26,31.82,27.42,32.16,9.7.19,18-2.93,24.22-9.02,6.43-6.31,9.98-15.49,9.98-25.86,0-20.82-11.81-33.75-30.83-33.75Z" style="fill:#231815;"/></svg>