<?xml version="1.0" encoding="UTF-8"?><svg id="a" xmlns="http://www.w3.org/2000/svg" viewBox="0 0 102.97 152"><path d="M87.62,120h-20.47c-3.99,0-7.25-3.19-7.35-7.18-.04-1.71-.2-16.91,6.39-25.7.56-.75,1.16-1.52,1.78-2.32,4.8-6.21,10.25-13.24,9.97-24.77-.16-6.49-7.21-25.33-27.42-25.33s-25.32,18.76-25.48,25.33c-.28,11.53,5.16,18.56,9.97,24.77.62.8,1.21,1.57,1.77,2.32,6.59,8.79,6.43,24,6.39,25.71-.09,3.99-3.35,7.18-7.35,7.18H15.35c-4.06,0-7.35-3.29-7.35-7.35s3.29-7.35,7.35-7.35h12.65c-.52-3.68-1.49-7.38-2.98-9.37-.52-.69-1.07-1.41-1.64-2.14-5.35-6.92-13.44-17.37-13.04-34.12.4-16.47,13.13-39.67,40.17-39.67,29.08,0,41.78,25.84,42.12,39.67.41,16.75-7.68,27.2-13.03,34.12-.57.74-1.12,1.45-1.64,2.14-1.5,1.99-2.46,5.68-2.98,9.37h12.65c4.06,0,7.35,3.29,7.35,7.35s-3.29,7.35-7.35,7.35Z" style="fill:#14327a;"/></svg>