<?xml version="1.0" encoding="UTF-8"?><svg id="a" xmlns="http://www.w3.org/2000/svg" viewBox="0 0 89.3 152"><path d="M81.25,81.36c0-23.97-14.02-38.86-36.6-38.86-9.1,0-16.18,2.27-21.62,5.88-.78-3.37-3.78-5.88-7.38-5.88-4.2,0-7.59,3.4-7.59,7.59v94.32c0,4.19,3.4,7.59,7.59,7.59s7.59-3.4,7.59-7.59v-30.34c5.76,3.84,12.99,5.92,21.41,5.92,27.01,0,36.6-19.72,36.6-36.6,0-.35-.06-.68-.1-1.02.05-.34.1-.67.1-1.02ZM44.65,104.8c-14.21,0-21.41-7.97-21.41-23.67v-2.03c0-7.99,2.78-21.41,21.41-21.41,14.21,0,21.41,7.97,21.41,23.67,0,.35.06.68.1,1.02-.05.34-.1.67-.1,1.02,0,7.99-2.78,21.41-21.41,21.41Z" style="fill:#231815;"/></svg>