<?xml version="1.0" encoding="UTF-8"?><svg id="a" xmlns="http://www.w3.org/2000/svg" viewBox="0 0 110.87 140"><path d="M99.94,106.42l-8.69-6.77c5.66-8.33,8.74-18.59,8.74-29.72,0-29.28-18.49-48.94-46.02-48.94S8,41.26,8,72.64c0,22.86,15.82,46.82,42.31,47.35.37,0,.74.01,1.11.01,10.94,0,21.07-3.3,29.25-9.35l9.93,7.74c1.39,1.08,3.03,1.61,4.66,1.61,2.26,0,4.5-1,6-2.92,2.58-3.31,1.99-8.08-1.32-10.66ZM50.61,104.8c-17.16-.34-27.42-16.62-27.42-32.16,0-8.56,2.22-36.47,30.79-36.47,19.02,0,30.83,12.93,30.83,33.75,0,7.67-1.95,14.67-5.56,20.36l-20.58-16.05c-3.31-2.58-8.08-1.99-10.66,1.32-2.58,3.31-1.99,8.08,1.32,10.66l18.69,14.57c-5.03,2.75-10.88,4.14-17.41,4.01Z" style="fill:#231815;"/></svg>