<?xml version="1.0" encoding="UTF-8"?><svg id="a" xmlns="http://www.w3.org/2000/svg" viewBox="0 0 100.82 152"><path d="M91.23,105.57l-22.39-28.87c14.83-3.85,20.42-16.28,20.42-28.07,0-13.67-10.29-27.81-27.52-27.81-13.18,0-46.12-.14-46.12-.14h-.03c-2.01,0-3.94.79-5.36,2.21-1.43,1.43-2.23,3.36-2.23,5.38v84.14c0,4.19,3.4,7.59,7.59,7.59s7.59-3.4,7.59-7.59v-34.86c6.38.12,16.95.29,27.37.36l28.67,36.97c1.5,1.93,3.74,2.94,6.01,2.94,1.63,0,3.27-.52,4.65-1.59,3.32-2.57,3.92-7.34,1.35-10.66ZM23.19,35.89c10.56.04,29.36.11,38.56.11s12.33,7.55,12.33,12.62c0,12.66-8.75,14.12-15.34,14.12-12.75,0-27.6-.24-35.55-.39v-26.46Z" style="fill:#231815;"/></svg>