<?xml version="1.0" encoding="UTF-8"?><svg id="a" xmlns="http://www.w3.org/2000/svg" viewBox="0 0 93.37 140"><path d="M46.57,119.62c-22.43,0-35.7-12.55-36.25-13.08-3.02-2.91-3.11-7.72-.19-10.74,2.92-3.02,7.72-3.1,10.74-.19.34.32,9.64,8.83,25.71,8.83h0c11.44,0,23.6-4.2,23.6-11.98,0-6.84-1.24-11.29-25.71-16.4-23.39-4.89-35.25-14.79-35.25-29.44,0-12.39,9.35-26.87,35.69-26.87h0c19.24,0,30.78,8.32,31.27,8.68,3.38,2.48,4.11,7.24,1.62,10.62-2.47,3.36-7.2,4.1-10.57,1.66-.26-.18-8.49-5.77-22.32-5.77h0c-6.16,0-20.5,1.14-20.5,11.68,0,8.05,12.6,12.37,23.17,14.58,19.92,4.16,37.79,9.68,37.79,31.27,0,15.99-15.95,27.17-38.79,27.17h0Z" style="fill:#231815;"/></svg>