<?xml version="1.0" encoding="UTF-8"?><svg id="a" xmlns="http://www.w3.org/2000/svg" viewBox="0 0 109.26 140"><path d="M85.97,85.82h-5.55v-33.19h5.55c4.2,0,7.59-3.4,7.59-7.59s-3.4-7.59-7.59-7.59h-5.55v-9.77c0-4.19-3.4-7.59-7.59-7.59s-7.59,3.4-7.59,7.59v9.77h-20.11v-9.77c0-4.19-3.4-7.59-7.59-7.59s-7.59,3.4-7.59,7.59v9.77h-6.69c-4.2,0-7.59,3.4-7.59,7.59s3.4,7.59,7.59,7.59h6.69v33.19h-6.69c-4.2,0-7.59,3.4-7.59,7.59s3.4,7.59,7.59,7.59h6.69v11.32c0,4.19,3.4,7.59,7.59,7.59s7.59-3.4,7.59-7.59v-11.32h20.11v11.32c0,4.19,3.4,7.59,7.59,7.59s7.59-3.4,7.59-7.59v-11.32h5.55c4.2,0,7.59-3.4,7.59-7.59s-3.4-7.59-7.59-7.59ZM45.12,85.82v-33.19h20.11v33.19h-20.11Z" style="fill:#231815;"/></svg>