<?xml version="1.0" encoding="UTF-8"?><svg id="a" xmlns="http://www.w3.org/2000/svg" viewBox="0 0 132.88 152"><path d="M41.4,120c-3.34,0-6.29-2.18-7.26-5.38L8.33,30.07c-1.22-4.01,1.03-8.26,5.05-9.48,4.01-1.23,8.25,1.03,9.48,5.05l18.54,60.74,18.55-60.85c.98-3.2,3.93-5.38,7.27-5.38h.03c3.35.01,6.3,2.22,7.25,5.44l17.75,60.03,17.75-60.03c1.19-4.02,5.4-6.32,9.44-5.13,4.02,1.19,6.32,5.41,5.13,9.44l-25.03,84.66c-.95,3.23-3.92,5.44-7.28,5.44s-6.33-2.21-7.28-5.44l-17.86-60.41-18.43,60.47c-.98,3.2-3.92,5.38-7.26,5.38h0Z" style="fill:#231815;"/></svg>