<?xml version="1.0" encoding="UTF-8"?><svg id="a" xmlns="http://www.w3.org/2000/svg" viewBox="0 0 96.93 152"><path d="M87.36,108.7l-29.49-38.17,29.47-37.73c2.57-3.29,1.99-8.04-1.3-10.61-3.29-2.57-8.04-1.99-10.61,1.3l-27.09,34.69L21.54,23.52c-2.56-3.3-7.3-3.91-10.6-1.36-3.3,2.55-3.91,7.3-1.36,10.6l29.14,37.71-29.12,37.28c-2.57,3.29-1.99,8.04,1.3,10.61,1.38,1.08,3.02,1.6,4.65,1.6,2.25,0,4.47-1,5.96-2.91l26.74-34.24,27.13,35.12c1.49,1.93,3.73,2.94,5.99,2.94,1.61,0,3.24-.51,4.62-1.58,3.3-2.55,3.91-7.3,1.36-10.6Z" style="fill:#231815;"/></svg>